# xmcd
#
# Track frame offsets:
#	150
#	21091
#	40067
#	59094
#	71761
#	85927
#	111786
#	131486
#	152848
#	164842
#	183255
#	201781
#	202089
#	220833
#	235578
#	253436
#	283551
#	308808
#
# Disc length: 4341
#
# Revision: 3
# Processed by: cddbd v1.5.1PL0 Copyright (c) Steve Scherf et al.
# Submitted via: cddb2pg 0.002
# Normalized: r2:DSETVAR1
#
DISCID=1010f312
DTITLE=Various Artist - Songs for MY Antje
DYEAR=1900
DGENRE=
TTITLE0=Semisonic - Secret Smile
TTITLE1=Extreme - More than words
TTITLE2=Zick dem du do bis - Brings
TTITLE3=Luka Bloom - Make you feel my love
TTITLE4=Julian Dawson - When hearts collite
TTITLE5=Gerd Köster - Tom Trauberts Blues
TTITLE6=Randy Crawford - One day I fly away
TTITLE7=Neil Young - Like a Hurricane
TTITLE8=Neil Young - Needle and the damage done
TTITLE9=Dog eyed view - These small wonders
TTITLE10=Dog eyed view - Confusion
TTITLE11=T - T
TTITLE12=Fury in the slaughterhouse - Radio Orchid
TTITLE13=The Brandos - The light of day
TTITLE14=Let it be - Holy Groove
TTITLE15=Sommertime - Mahilia Jackson
TTITLE16=Long John Baldry - Insane Asylum
TTITLE17=Long John Baldry - You wanna dance
EXTD=
EXTT0=
EXTT1=
EXTT2=
EXTT3=
EXTT4=
EXTT5=
EXTT6=
EXTT7=
EXTT8=
EXTT9=
EXTT10=
EXTT11=
EXTT12=
EXTT13=
EXTT14=
EXTT15=
EXTT16=
EXTT17=
PLAYORDER=
